<svg xmlns="http://www.w3.org/2000/svg" viewBox="0 0 1024 1024" role="img" aria-label="Payment">
  <path d="M512 64c247.424 0 448 200.576 448 448S759.424 960 512 960 64 759.424 64 512 264.576 64 512 64Z" fill="#4F46E5"/>
  <path d="M307 329c0-39.765 32.235-72 72-72h274c39.765 0 72 32.235 72 72v36H371c-35.346 0-64 28.654-64 64V329Z" fill="#C7D2FE"/>
  <path d="M260 413c0-35.346 28.654-64 64-64h392c35.346 0 64 28.654 64 64v258c0 35.346-28.654 64-64 64H324c-35.346 0-64-28.654-64-64V413Z" fill="#FFFFFF"/>
  <path d="M636 481c0-30.928 25.072-56 56-56h88v214h-88c-30.928 0-56-25.072-56-56V481Z" fill="#EEF2FF"/>
  <path d="M708 494c30.928 0 56 25.072 56 56s-25.072 56-56 56-56-25.072-56-56 25.072-56 56-56Z" fill="#FBBF24"/>
  <path d="M348 457c0-17.673 14.327-32 32-32h172c17.673 0 32 14.327 32 32s-14.327 32-32 32H380c-17.673 0-32-14.327-32-32Z" fill="#4F46E5"/>
  <path d="M348 557c0-15.464 12.536-28 28-28h152c15.464 0 28 12.536 28 28s-12.536 28-28 28H376c-15.464 0-28-12.536-28-28Z" fill="#A5B4FC"/>
</svg>
